<!--Icons made by Freepik from www.flaticon.com. Icons made by Smashicons from www.flaticon.com-->
<svg xmlns="http://www.w3.org/2000/svg" style="display: none;">
    <symbol id="attendees" viewBox="0 -32 512 512">
        <title>attendees</title>
        <path d="m271 15c0-8.285156-6.714844-15-15-15s-15 6.714844-15 15v64.265625c0 8.285156 6.714844 15 15 15s15-6.714844 15-15zm0 0"/>
        <path d="m181.128906 105.941406c2.925782 2.925782 6.765625 4.394532 10.605469 4.394532 3.835937 0 7.675781-1.464844 10.605469-4.394532 5.855468-5.859375 5.855468-15.355468 0-21.214844l-32.136719-32.132812c-5.855469-5.859375-15.351563-5.859375-21.210937 0-5.859376 5.859375-5.859376 15.355469 0 21.214844zm0 0"/>
        <path d="m320.265625 110.332031c3.839844 0 7.679687-1.464843 10.605469-4.394531l32.136718-32.132812c5.855469-5.855469 5.855469-15.355469 0-21.210938-5.859374-5.859375-15.355468-5.859375-21.214843 0l-32.132813 32.132812c-5.859375 5.859376-5.859375 15.355469 0 21.210938 2.929688 2.929688 6.769532 4.394531 10.605469 4.394531zm0 0"/>
        <path d="m212.605469 144.914062c-.15625.128907-.304688.253907-.445313.371094l-64.851562 55.59375c-6.007813 5.148438-13.6875 7.988282-21.609375 7.988282h-46.449219c-43.769531 0-79.25 35.417968-79.25 79.25v144.621093c0 8.28125 6.714844 15 15 15h128.53125c8.289062 0 15-6.722656 15-15v-137.703125l76.328125-65.425781c3.898437-3.339844 6.140625-8.21875 6.140625-13.351563v-57.589843c0-14.648438-17.015625-22.980469-28.394531-13.753907zm0 0"/>
        <path d="m432.75 208.867188h-46.449219c-7.921875 0-15.601562-2.839844-21.609375-7.992188l-64.851562-55.589844c-.140625-.117187-.289063-.242187-.445313-.371094-11.378906-9.226562-28.394531-.894531-28.394531 13.753907v57.589843c0 5.132813 2.242188 10.011719 6.140625 13.351563l76.328125 65.425781v137.699219c0 8.28125 6.710938 15 15 15h128.53125c8.285156 0 15-6.714844 15-15v-144.617187c0-43.832032-35.480469-79.25-79.25-79.25zm0 0"/>
        <path d="m142.464844 145.664062c0-34.847656-28.351563-63.199218-63.199219-63.199218s-63.199219 28.351562-63.199219 63.199218c0 34.851563 28.351563 63.203126 63.199219 63.203126s63.199219-28.351563 63.199219-63.203126zm0 0"/>
        <path d="m495.933594 145.664062c0-34.847656-28.351563-63.199218-63.199219-63.199218s-63.199219 28.351562-63.199219 63.199218c0 34.851563 28.351563 63.203126 63.199219 63.203126s63.199219-28.351563 63.199219-63.203126zm0 0"/>
    </symbol>
    <symbol id="cuisine-type" viewBox="0 0 57 57">
        <title>cuisine-type</title>
        <path id="Shape"
              d="m29 21c-.7962196-.0018644-1.560365.3136074-2.1233788.8766212s-.8784856 1.3271592-.8766212 2.1233788c.0014287.145763.0141333.2911971.038.435.0914805.6264447.3817325 1.2069487.828 1.656.706-.055 1.417-.091 2.134-.091s1.425.036 2.13.09c.37083-.3725394.6350003-.8376862.765-1.347-.7736227-.7274406-1.0771598-1.8254966-.787-2.847-.5516472-.5728111-1.3127472-.8963147-2.108-.896z"/>
        <path id="Shape"
              d="m49.318 10.871c.1296088-.7200514-.3240093-1.4164757-1.035-1.589-3.5-.848-7.038-1.623-10.435-2.293 3.246 1.525 6.645 3.218 10.016 5 .699432.0545912 1.3270813-.4280167 1.454-1.118z"/>
        <path id="Shape"
              d="m8.221 12.3c2.3803173-1.3277351 5.3191636-1.1298528 7.5.505 1.2626871.9958564 2.3274218 2.2196739 3.139 3.608 1.042 1.723 2.181 3.506 3.384 5.3.238.351.471.686.688 1l.355.512c.1781749.2473342.445152.4161211.745.471.0555896-.9405558.377817-1.845845.929-2.61-.91-2.017-1.633-4.3-.906-6.471.2263922-.7365642.7671526-1.3351718 1.477-1.635 1.548-.653 3.618.133 4.715.661 2.0099442.874316 3.3866395 2.7710537 3.595 4.953-.0875372 1.1356322-.3097631 2.2568322-.662 3.34l-.11.358c-.0404468.1124594-.0630533.2305535-.067.35-.0012539.3429475.181099.6603482.478.832.0306317.0178105.0603368.0371689.089.058.0449708.0214018.0910342.040428.138.057.4929508.1614125 1.0274864-.0808871 1.231-.558.6558193-1.5882488 1.017693-3.2824138 1.068-5-.3053066-2.0332673-1.251137-3.9161703-2.7-5.375-.3360928-.3517996-.3779085-.8916403-.1-1.291.2726774-.3939081.7890383-.5348105 1.224-.334l13.56 6.42c.6826655.3096227 1.4880791.0266038 1.827-.642.3204685-.6655714.062182-1.4655116-.587-1.818-6.062-3.285-12.383-6.375-17.792-8.7-8.32-3.558-14.523-5.361-18.439-5.361-4.12882803-.04968849-8.22210095.76794405-12.015 2.4l.015 12.91zm-5.221-6.931c-.00028523-.42571516.26898431-.80493978.671-.945 1.37383754-.47465235 2.78467258-.83455242 4.218-1.076.35226387-.05984199.70969443.07279228.93765105.34794074.22795661.27514847.29180725.65100955.1675.986-.12430726.33499046-.41788718.57821727-.77015105.63805926-1.09079908.18412297-2.16791694.44170916-3.224.771v3.909c0 .5522847-.44771525 1-1 1s-1-.4477153-1-1z"/>
        <path id="Shape"
              d="m55.5 54h-41.5c-.5522847 0-1-.4477153-1-1s.4477153-1 1-1h39.98c-.3938943-9.9222635-6.6247087-18.6700643-15.8732668-22.2853979-9.2485582-3.6153337-19.7601508-1.4122705-26.7787332 5.6123979-4.46364525 4.4288375-7.07619222 10.3892912-7.308 16.673h4.98c.55228475 0 1 .4477153 1 1s-.44771525 1-1 1h-6.5c-.82842712 0-1.5.6715729-1.5 1.5s.67157288 1.5 1.5 1.5h53c.8284271 0 1.5-.6715729 1.5-1.5s-.6715729-1.5-1.5-1.5zm-35.5-22c.5522847 0 1 .4477153 1 1s-.4477153 1-1 1-1-.4477153-1-1 .4477153-1 1-1zm-11.656 17.18c-.09941127.5434482-.62055181.9034112-1.16399999.804-.54344818-.0994113-.90341124-.6205518-.80400001-1.164.83877011-4.5837362 3.0614734-8.8005557 6.369-12.083 1.067719-1.0695292 2.2368846-2.0327261 3.491-2.876.4586725-.3078987 1.0801013-.1856725 1.388.273s.1856725 1.0801013-.273 1.388c-1.1469132.7700978-2.2156774 1.6506309-3.191 2.629-3.0208669 2.995099-5.05075941 6.8444257-5.816 11.029z"/>
    </symbol>
    <symbol id="close" viewBox="0 0 348.333 348.334">
        <title>close</title>
        <path d="M336.559,68.611L231.016,174.165l105.543,105.549c15.699,15.705,15.699,41.145,0,56.85 c-7.844,7.844-18.128,11.769-28.407,11.769c-10.296,0-20.581-3.919-28.419-11.769L174.167,231.003L68.609,336.563 c-7.843,7.844-18.128,11.769-28.416,11.769c-10.285,0-20.563-3.919-28.413-11.769c-15.699-15.698-15.699-41.139,0-56.85 l105.54-105.549L11.774,68.611c-15.699-15.699-15.699-41.145,0-56.844c15.696-15.687,41.127-15.687,56.829,0l105.563,105.554 L279.721,11.767c15.705-15.687,41.139-15.687,56.832,0C352.258,27.466,352.258,52.912,336.559,68.611z"/>
    </symbol>
    <symbol id="search" viewBox="0 0 339.921 339.921">
        <title>search</title>
        <path d="M335.165,292.071l-81.385-84.077c-5.836-6.032-13.13-8.447-16.29-5.363 c-3.171,3.062-10.47,0.653-16.306-5.379l-1.164-1.207c36.425-47.907,32.89-116.499-10.851-160.24 c-47.739-47.739-125.142-47.739-172.875,0c-47.739,47.739-47.739,125.131,0,172.87c44.486,44.492,114.699,47.472,162.704,9.045 l0.511,0.533c5.825,6.032,7.995,13.402,4.814,16.469c-3.166,3.068-1.012,10.443,4.83,16.464l81.341,84.11 c5.836,6.016,15.452,6.195,21.49,0.354l22.828-22.088C340.827,307.735,340.99,298.125,335.165,292.071z M182.306,181.81 c-32.852,32.857-86.312,32.857-119.159,0.011c-32.852-32.852-32.847-86.318,0-119.164c32.847-32.852,86.307-32.847,119.148,0.005 C215.152,95.509,215.152,148.964,182.306,181.81z"/>
    </symbol>
    <symbol id="price" viewBox="0 0 25.848 25.848">
        <title>price</title>
        <path d="M25.839,4.958c0,3.927-1.712,6.78-1.784,6.899c-0.145,0.237-0.396,0.367-0.655,0.367 c-0.136,0-0.273-0.036-0.397-0.111c-0.362-0.22-0.478-0.691-0.259-1.053c0.016-0.026,1.561-2.623,1.561-6.102 c0-1.984-1.29-3.424-3.068-3.424c-1.692,0-3.068,1.376-3.068,3.069c0,0.721,0.349,2.553,0.483,3.198 c0.087,0.415-0.18,0.821-0.595,0.908c-0.415,0.085-0.821-0.18-0.907-0.594c-0.053-0.253-0.517-2.502-0.517-3.512 C16.633,2.065,18.698,0,21.237,0C23.86,0,25.839,2.131,25.839,4.958z M21.367,6.165c0.305,2.549,0.747,7.516,0.239,8.022 L10.46,25.334c-0.685,0.686-1.798,0.686-2.484-0.001l-7.453-7.452c-0.686-0.685-0.686-1.798,0-2.484L11.67,4.251 c0.177-0.177,2.105-0.185,4.273-0.072C15.931,4.322,15.9,4.457,15.9,4.603c0,0.556,0.123,1.418,0.252,2.176 c-0.227,0.337-0.36,0.742-0.36,1.179c0,1.164,0.944,2.108,2.108,2.108s2.108-0.944,2.108-2.108c0-0.717-0.359-1.349-0.906-1.729 C18.99,5.562,18.9,4.918,18.9,4.603c0-0.068,0.014-0.131,0.02-0.198c0.267,0.028,0.53,0.057,0.779,0.088 C21.172,4.674,21.187,4.671,21.367,6.165z M15.426,14.507c-0.173-0.481-0.461-1.058-1.086-1.722l0.846-0.847l-0.942-0.941 l-0.913,0.914c-1.222-0.837-2.482-0.769-3.337,0.086c-0.932,0.932-0.712,2.115-0.028,3.49c0.47,0.952,0.556,1.5,0.191,1.865 c-0.375,0.375-0.98,0.212-1.529-0.336c-0.624-0.624-0.99-1.395-1.172-2.02l-1.414,0.838c0.164,0.566,0.606,1.373,1.23,2.037 L6.35,18.794l0.941,0.942l0.991-0.99c1.307,0.922,2.625,0.798,3.48-0.057c0.875-0.877,0.952-1.857,0.202-3.414 c-0.52-1.116-0.645-1.664-0.337-1.971c0.27-0.27,0.75-0.347,1.375,0.278c0.693,0.693,0.923,1.366,1.048,1.722L15.426,14.507z"/>
    </symbol>
    <symbol id="user" viewBox="-42 0 512 512.002">
        <title>user</title>
        <path d="m210.351562 246.632812c33.882813 0 63.222657-12.152343 87.195313-36.128906 23.972656-23.972656 36.125-53.304687 36.125-87.191406 0-33.875-12.152344-63.210938-36.128906-87.191406-23.976563-23.96875-53.3125-36.121094-87.191407-36.121094-33.886718 0-63.21875 12.152344-87.191406 36.125s-36.128906 53.308594-36.128906 87.1875c0 33.886719 12.15625 63.222656 36.132812 87.195312 23.976563 23.96875 53.3125 36.125 87.1875 36.125zm0 0"/>
        <path d="m426.128906 393.703125c-.691406-9.976563-2.089844-20.859375-4.148437-32.351563-2.078125-11.578124-4.753907-22.523437-7.957031-32.527343-3.308594-10.339844-7.808594-20.550781-13.371094-30.335938-5.773438-10.15625-12.554688-19-20.164063-26.277343-7.957031-7.613282-17.699219-13.734376-28.964843-18.199219-11.226563-4.441407-23.667969-6.691407-36.976563-6.691407-5.226563 0-10.28125 2.144532-20.042969 8.5-6.007812 3.917969-13.035156 8.449219-20.878906 13.460938-6.707031 4.273438-15.792969 8.277344-27.015625 11.902344-10.949219 3.542968-22.066406 5.339844-33.039063 5.339844-10.972656 0-22.085937-1.796876-33.046874-5.339844-11.210938-3.621094-20.296876-7.625-26.996094-11.898438-7.769532-4.964844-14.800782-9.496094-20.898438-13.46875-9.75-6.355468-14.808594-8.5-20.035156-8.5-13.3125 0-25.75 2.253906-36.972656 6.699219-11.257813 4.457031-21.003906 10.578125-28.96875 18.199219-7.605469 7.28125-14.390625 16.121094-20.15625 26.273437-5.558594 9.785157-10.058594 19.992188-13.371094 30.339844-3.199219 10.003906-5.875 20.945313-7.953125 32.523437-2.058594 11.476563-3.457031 22.363282-4.148437 32.363282-.679688 9.796875-1.023438 19.964844-1.023438 30.234375 0 26.726562 8.496094 48.363281 25.25 64.320312 16.546875 15.746094 38.441406 23.734375 65.066406 23.734375h246.53125c26.625 0 48.511719-7.984375 65.0625-23.734375 16.757813-15.945312 25.253906-37.585937 25.253906-64.324219-.003906-10.316406-.351562-20.492187-1.035156-30.242187zm0 0"/>
    </symbol>
    <symbol id="range" viewBox="0 0 480.543 480.543">
        <title>range</title>
        <path d="M225.278,278.426c0-48.641-39.572-88.213-88.214-88.213c-48.641,0-88.212,39.572-88.212,88.213 c0,14.254,3.401,27.727,9.431,39.654l78.781,162.463l78.795-162.488C221.88,306.133,225.278,292.669,225.278,278.426z M137.064,327.243c-26.917,0-48.817-21.9-48.817-48.817s21.9-48.817,48.817-48.817c26.918,0,48.817,21.9,48.817,48.817 S163.982,327.243,137.064,327.243z"/>
        <path d="M387.021,0c-24.63,0-44.669,20.038-44.669,44.668c0,7.218,1.723,14.04,4.776,20.081l39.893,82.267l39.899-82.28 c3.049-6.037,4.77-12.855,4.77-20.067C431.69,20.038,411.65,0,387.021,0z M387.021,69.388c-13.631,0-24.72-11.089-24.72-24.72 c0-13.63,11.089-24.72,24.72-24.72c13.629,0,24.719,11.09,24.719,24.72C411.74,58.299,400.65,69.388,387.021,69.388z"/>
        <path d="M348.116,289.787c-1.812-8.523-4.166-16.875-7.131-25.075c-3.974-10.987-8.74-21.724-12.391-32.836 c-6.823-20.771,4.948-38.105,7.16-41.256c3.876-5.517,8.408-10.58,13.19-15.322c9.207-9.128,19.361-17.288,29.984-24.803 c-1.316-2.039-2.591-4.1-3.805-6.199c-15.279,5.99-93.854,33.452-91.938,94.121c0.384,12.162,5.083,23.737,7.979,35.526 c1.395,5.681,2.605,11.412,3.345,17.218c0.319,2.614,0.515,5.243,0.729,7.87c0.006-0.02,0.004-0.034-0.008-0.045 c0.007,0.076,0.202,8.326-0.164,11.9c-1.147,11.189-2.799,22.494-7.516,32.758c-4.387,9.543-11.006,17.842-19.193,24.402 c-18.716,14.994-43.514,20.988-66.913,23.398c-1.114,0.117-2.228,0.217-3.342,0.314l-41.779,86.152 c20.614-1.281,41.175-4.102,61.235-9.039c23.607-5.811,46.613-14.588,67.227-27.598c20.596-12.996,38.308-30.578,50.099-51.984 c12.335-22.391,17.277-48.038,16.225-73.452C350.752,307.156,349.928,298.307,348.116,289.787z"/>
    </symbol>
    <symbol id="compass" viewBox="0 0 511.998 511.998">
        <title>compass</title>
        <path d="M505.743,6.249c-6.08-6.101-15.211-7.893-23.168-4.672l-469.333,192c-8.768,3.605-14.123,12.544-13.12,21.973 c0.981,9.429,8.064,17.067,17.387,18.773l220.139,40.021l40.043,220.139c1.685,9.323,9.323,16.405,18.752,17.408 c0.747,0.064,1.493,0.107,2.219,0.107c8.576,0,16.448-5.184,19.755-13.269l192-469.333 C513.658,21.459,511.823,12.329,505.743,6.249z"/>
    </symbol>
</svg>
